<mxfile host="app.diagrams.net" modified="2021-06-28T02:32:25.041Z" agent="5.0 (Windows NT 10.0; Win64; x64) AppleWebKit/537.36 (KHTML, like Gecko) Chrome/91.0.4472.101 Safari/537.36 OPR/77.0.4054.90" etag="h_pwvIC5YlG1jO5SaXeE" version="14.6.9" type="github">
  <diagram id="GFmyuYq_LgXWXnktldNv" name="Page-1">
    <mxGraphModel dx="998" dy="559" grid="1" gridSize="10" guides="1" tooltips="1" connect="1" arrows="1" fold="1" page="1" pageScale="1" pageWidth="827" pageHeight="1169" math="0" shadow="0">
      <root>
        <mxCell id="0" />
        <mxCell id="1" parent="0" />
        <mxCell id="z2W3B4RfYyFA8BWhK1iv-1" value="" style="rounded=0;whiteSpace=wrap;html=1;" vertex="1" parent="1">
          <mxGeometry x="70" y="130" width="120" height="60" as="geometry" />
        </mxCell>
        <mxCell id="z2W3B4RfYyFA8BWhK1iv-2" value="&lt;font style=&quot;font-size: 18px&quot; face=&quot;Tahoma&quot;&gt;&lt;b&gt;Inicio&lt;/b&gt;&lt;/font&gt;" style="text;html=1;strokeColor=none;fillColor=none;align=center;verticalAlign=middle;whiteSpace=wrap;rounded=0;" vertex="1" parent="1">
          <mxGeometry x="110" y="150" width="40" height="20" as="geometry" />
        </mxCell>
        <mxCell id="z2W3B4RfYyFA8BWhK1iv-3" value="" style="endArrow=classic;html=1;entryX=0.5;entryY=0;entryDx=0;entryDy=0;" edge="1" parent="1" source="z2W3B4RfYyFA8BWhK1iv-1" target="z2W3B4RfYyFA8BWhK1iv-4">
          <mxGeometry width="50" height="50" relative="1" as="geometry">
            <mxPoint x="190" y="230" as="sourcePoint" />
            <mxPoint x="140" y="350" as="targetPoint" />
          </mxGeometry>
        </mxCell>
        <mxCell id="z2W3B4RfYyFA8BWhK1iv-4" value="" style="rounded=0;whiteSpace=wrap;html=1;" vertex="1" parent="1">
          <mxGeometry x="70" y="370" width="120" height="60" as="geometry" />
        </mxCell>
        <mxCell id="z2W3B4RfYyFA8BWhK1iv-14" style="edgeStyle=orthogonalEdgeStyle;rounded=0;orthogonalLoop=1;jettySize=auto;html=1;entryX=0.5;entryY=1;entryDx=0;entryDy=0;" edge="1" parent="1" source="z2W3B4RfYyFA8BWhK1iv-5">
          <mxGeometry relative="1" as="geometry">
            <mxPoint x="300" y="190" as="targetPoint" />
          </mxGeometry>
        </mxCell>
        <mxCell id="z2W3B4RfYyFA8BWhK1iv-5" value="&lt;font style=&quot;font-size: 18px&quot; face=&quot;Tahoma&quot;&gt;&lt;b&gt;Buscar el siguiente #&lt;/b&gt;&lt;/font&gt;" style="text;html=1;strokeColor=none;fillColor=none;align=center;verticalAlign=middle;whiteSpace=wrap;rounded=0;" vertex="1" parent="1">
          <mxGeometry x="70" y="390" width="120" height="20" as="geometry" />
        </mxCell>
        <mxCell id="z2W3B4RfYyFA8BWhK1iv-6" value="" style="rounded=0;whiteSpace=wrap;html=1;" vertex="1" parent="1">
          <mxGeometry x="530" y="190" width="120" height="60" as="geometry" />
        </mxCell>
        <mxCell id="z2W3B4RfYyFA8BWhK1iv-30" style="edgeStyle=orthogonalEdgeStyle;rounded=0;orthogonalLoop=1;jettySize=auto;html=1;entryX=0.5;entryY=0;entryDx=0;entryDy=0;" edge="1" parent="1" source="z2W3B4RfYyFA8BWhK1iv-7" target="z2W3B4RfYyFA8BWhK1iv-24">
          <mxGeometry relative="1" as="geometry">
            <Array as="points">
              <mxPoint x="590" y="290" />
              <mxPoint x="460" y="290" />
            </Array>
          </mxGeometry>
        </mxCell>
        <mxCell id="z2W3B4RfYyFA8BWhK1iv-31" style="edgeStyle=orthogonalEdgeStyle;rounded=0;orthogonalLoop=1;jettySize=auto;html=1;entryX=0.5;entryY=0;entryDx=0;entryDy=0;" edge="1" parent="1" source="z2W3B4RfYyFA8BWhK1iv-7" target="z2W3B4RfYyFA8BWhK1iv-26">
          <mxGeometry relative="1" as="geometry" />
        </mxCell>
        <mxCell id="z2W3B4RfYyFA8BWhK1iv-7" value="&lt;font style=&quot;font-size: 18px&quot; face=&quot;Tahoma&quot;&gt;&lt;b&gt;Buscar el siguiente # o /&lt;/b&gt;&lt;/font&gt;" style="text;html=1;strokeColor=none;fillColor=none;align=center;verticalAlign=middle;whiteSpace=wrap;rounded=0;" vertex="1" parent="1">
          <mxGeometry x="530" y="190" width="120" height="60" as="geometry" />
        </mxCell>
        <mxCell id="z2W3B4RfYyFA8BWhK1iv-8" value="" style="rounded=0;whiteSpace=wrap;html=1;" vertex="1" parent="1">
          <mxGeometry x="70" y="530" width="120" height="60" as="geometry" />
        </mxCell>
        <mxCell id="z2W3B4RfYyFA8BWhK1iv-9" value="&lt;font style=&quot;font-size: 18px&quot; face=&quot;Tahoma&quot;&gt;&lt;b&gt;Terminamos&lt;br&gt;&lt;/b&gt;&lt;/font&gt;" style="text;html=1;strokeColor=none;fillColor=none;align=center;verticalAlign=middle;whiteSpace=wrap;rounded=0;" vertex="1" parent="1">
          <mxGeometry x="70" y="550" width="120" height="20" as="geometry" />
        </mxCell>
        <mxCell id="z2W3B4RfYyFA8BWhK1iv-10" value="" style="endArrow=classic;html=1;entryX=0.5;entryY=0;entryDx=0;entryDy=0;" edge="1" parent="1" source="z2W3B4RfYyFA8BWhK1iv-4" target="z2W3B4RfYyFA8BWhK1iv-8">
          <mxGeometry width="50" height="50" relative="1" as="geometry">
            <mxPoint x="130" y="480" as="sourcePoint" />
            <mxPoint x="130" y="500.71067811865476" as="targetPoint" />
          </mxGeometry>
        </mxCell>
        <mxCell id="z2W3B4RfYyFA8BWhK1iv-11" value="" style="shape=callout;whiteSpace=wrap;html=1;perimeter=calloutPerimeter;size=30;position=0;position2=0;base=20;direction=south;" vertex="1" parent="1">
          <mxGeometry x="130" y="470" width="170" height="30" as="geometry" />
        </mxCell>
        <mxCell id="z2W3B4RfYyFA8BWhK1iv-12" value="&lt;font style=&quot;font-size: 16px&quot;&gt;&lt;b&gt;Si no hay&lt;/b&gt;&lt;/font&gt;" style="text;html=1;strokeColor=none;fillColor=none;align=center;verticalAlign=middle;whiteSpace=wrap;rounded=0;" vertex="1" parent="1">
          <mxGeometry x="160" y="470" width="140" height="30" as="geometry" />
        </mxCell>
        <mxCell id="z2W3B4RfYyFA8BWhK1iv-15" value="" style="shape=callout;whiteSpace=wrap;html=1;perimeter=calloutPerimeter;size=30;position=0;position2=0;base=20;direction=north;" vertex="1" parent="1">
          <mxGeometry x="150" y="310" width="140" height="30" as="geometry" />
        </mxCell>
        <mxCell id="z2W3B4RfYyFA8BWhK1iv-16" value="&lt;font style=&quot;font-size: 16px&quot;&gt;&lt;b&gt;Si&amp;nbsp;hay&lt;/b&gt;&lt;/font&gt;" style="text;html=1;strokeColor=none;fillColor=none;align=center;verticalAlign=middle;whiteSpace=wrap;rounded=0;" vertex="1" parent="1">
          <mxGeometry x="150" y="310" width="110" height="30" as="geometry" />
        </mxCell>
        <mxCell id="z2W3B4RfYyFA8BWhK1iv-21" value="" style="rounded=0;whiteSpace=wrap;html=1;" vertex="1" parent="1">
          <mxGeometry x="230" y="130" width="120" height="60" as="geometry" />
        </mxCell>
        <mxCell id="z2W3B4RfYyFA8BWhK1iv-23" style="edgeStyle=orthogonalEdgeStyle;rounded=0;orthogonalLoop=1;jettySize=auto;html=1;entryX=0;entryY=0.25;entryDx=0;entryDy=0;" edge="1" parent="1" source="z2W3B4RfYyFA8BWhK1iv-22" target="z2W3B4RfYyFA8BWhK1iv-7">
          <mxGeometry relative="1" as="geometry" />
        </mxCell>
        <mxCell id="z2W3B4RfYyFA8BWhK1iv-22" value="&lt;font style=&quot;font-size: 18px&quot; face=&quot;Tahoma&quot;&gt;&lt;b&gt;Volver al primer carÃ¡cter&lt;/b&gt;&lt;/font&gt;" style="text;html=1;strokeColor=none;fillColor=none;align=center;verticalAlign=middle;whiteSpace=wrap;rounded=0;" vertex="1" parent="1">
          <mxGeometry x="230" y="150" width="120" height="20" as="geometry" />
        </mxCell>
        <mxCell id="z2W3B4RfYyFA8BWhK1iv-24" value="" style="rounded=0;whiteSpace=wrap;html=1;" vertex="1" parent="1">
          <mxGeometry x="400" y="330" width="120" height="60" as="geometry" />
        </mxCell>
        <mxCell id="z2W3B4RfYyFA8BWhK1iv-37" style="edgeStyle=orthogonalEdgeStyle;rounded=0;orthogonalLoop=1;jettySize=auto;html=1;entryX=1;entryY=0.75;entryDx=0;entryDy=0;" edge="1" parent="1" source="z2W3B4RfYyFA8BWhK1iv-25" target="z2W3B4RfYyFA8BWhK1iv-4">
          <mxGeometry relative="1" as="geometry">
            <Array as="points">
              <mxPoint x="330" y="360" />
              <mxPoint x="330" y="415" />
            </Array>
          </mxGeometry>
        </mxCell>
        <mxCell id="z2W3B4RfYyFA8BWhK1iv-25" value="&lt;font style=&quot;font-size: 18px&quot; face=&quot;Tahoma&quot;&gt;&lt;b&gt;Obtener el antecesor&lt;/b&gt;&lt;/font&gt;" style="text;html=1;strokeColor=none;fillColor=none;align=center;verticalAlign=middle;whiteSpace=wrap;rounded=0;" vertex="1" parent="1">
          <mxGeometry x="400" y="350" width="120" height="20" as="geometry" />
        </mxCell>
        <mxCell id="z2W3B4RfYyFA8BWhK1iv-26" value="" style="rounded=0;whiteSpace=wrap;html=1;" vertex="1" parent="1">
          <mxGeometry x="630" y="330" width="120" height="60" as="geometry" />
        </mxCell>
        <mxCell id="z2W3B4RfYyFA8BWhK1iv-38" style="edgeStyle=orthogonalEdgeStyle;rounded=0;orthogonalLoop=1;jettySize=auto;html=1;entryX=1;entryY=0.5;entryDx=0;entryDy=0;" edge="1" parent="1" source="z2W3B4RfYyFA8BWhK1iv-27" target="z2W3B4RfYyFA8BWhK1iv-7">
          <mxGeometry relative="1" as="geometry">
            <Array as="points">
              <mxPoint x="860" y="360" />
              <mxPoint x="860" y="220" />
            </Array>
          </mxGeometry>
        </mxCell>
        <mxCell id="z2W3B4RfYyFA8BWhK1iv-27" value="&lt;font style=&quot;font-size: 18px&quot; face=&quot;Tahoma&quot;&gt;&lt;b&gt;Obtener el antecesor&lt;/b&gt;&lt;/font&gt;" style="text;html=1;strokeColor=none;fillColor=none;align=center;verticalAlign=middle;whiteSpace=wrap;rounded=0;" vertex="1" parent="1">
          <mxGeometry x="630" y="350" width="120" height="20" as="geometry" />
        </mxCell>
        <mxCell id="z2W3B4RfYyFA8BWhK1iv-33" value="" style="shape=callout;whiteSpace=wrap;html=1;perimeter=calloutPerimeter;size=30;position=0;position2=0;base=20;direction=north;" vertex="1" parent="1">
          <mxGeometry x="320" y="270" width="140" height="30" as="geometry" />
        </mxCell>
        <mxCell id="z2W3B4RfYyFA8BWhK1iv-34" value="&lt;font style=&quot;font-size: 16px&quot;&gt;&lt;b&gt;Si es #&lt;/b&gt;&lt;/font&gt;" style="text;html=1;strokeColor=none;fillColor=none;align=center;verticalAlign=middle;whiteSpace=wrap;rounded=0;" vertex="1" parent="1">
          <mxGeometry x="320" y="270" width="110" height="30" as="geometry" />
        </mxCell>
        <mxCell id="z2W3B4RfYyFA8BWhK1iv-35" value="" style="shape=callout;whiteSpace=wrap;html=1;perimeter=calloutPerimeter;size=30;position=0.33;position2=1;base=20;direction=south;" vertex="1" parent="1">
          <mxGeometry x="690" y="270" width="145" height="30" as="geometry" />
        </mxCell>
        <mxCell id="z2W3B4RfYyFA8BWhK1iv-36" value="&lt;font style=&quot;font-size: 16px&quot;&gt;&lt;b&gt;Si es /&lt;/b&gt;&lt;/font&gt;" style="text;html=1;strokeColor=none;fillColor=none;align=center;verticalAlign=middle;whiteSpace=wrap;rounded=0;" vertex="1" parent="1">
          <mxGeometry x="725" y="270" width="110" height="30" as="geometry" />
        </mxCell>
      </root>
    </mxGraphModel>
  </diagram>
</mxfile>
